<svg xmlns="http://www.w3.org/2000/svg" xmlns:xlink="http://www.w3.org/1999/xlink" width="200" zoomAndPan="magnify" viewBox="0 0 150 149.999998" height="200" preserveAspectRatio="xMidYMid meet" version="1.0"><defs><clipPath id="8650a4c483"><path d="M 18.835938 18.835938 L 125.335938 18.835938 L 125.335938 125.335938 L 18.835938 125.335938 Z M 18.835938 18.835938 " clip-rule="nonzero"/></clipPath></defs><g clip-path="url(#8650a4c483)"><path fill="#c4a0cc" d="M 124.625 78.496094 L 121.117188 74.988281 C 119.796875 73.667969 117.648438 73.667969 116.332031 74.988281 L 114.195312 77.125 L 108.65625 54.546875 C 111.304688 51.832031 113.78125 48.972656 115.898438 46.175781 C 120.980469 39.453125 124.054688 33.042969 124.789062 27.628906 C 125.105469 25.289062 124.414062 23.074219 122.894531 21.554688 C 121.375 20.035156 119.160156 19.34375 116.820312 19.660156 C 111.410156 20.394531 104.996094 23.46875 98.273438 28.550781 C 95.476562 30.667969 92.621094 33.148438 89.902344 35.792969 L 67.324219 30.257812 L 69.464844 28.121094 C 70.78125 26.800781 70.78125 24.652344 69.464844 23.332031 L 65.953125 19.824219 C 64.632812 18.503906 62.488281 18.503906 61.167969 19.824219 L 54.003906 26.988281 L 31.125 21.378906 C 28.726562 20.789062 26.347656 21.453125 24.597656 23.199219 L 22.667969 25.132812 C 21.390625 26.40625 20.835938 28.15625 21.140625 29.925781 C 21.449219 31.695312 22.558594 33.152344 24.191406 33.925781 L 72.074219 56.621094 L 47.835938 86.261719 L 26.4375 84.578125 C 24.359375 84.417969 22.484375 85.109375 21.015625 86.582031 L 19.589844 88.003906 C 18.9375 88.65625 18.683594 89.582031 18.921875 90.476562 C 19.15625 91.371094 19.832031 92.054688 20.726562 92.300781 L 38.976562 97.339844 C 37.621094 99.886719 37.863281 102.863281 39.722656 104.726562 C 40.800781 105.800781 42.246094 106.335938 43.765625 106.335938 C 44.878906 106.335938 46.035156 106.046875 47.113281 105.476562 L 52.148438 123.722656 C 52.394531 124.617188 53.078125 125.292969 53.972656 125.527344 C 54.195312 125.585938 54.417969 125.617188 54.636719 125.617188 C 55.308594 125.617188 55.953125 125.351562 56.445312 124.859375 L 57.871094 123.4375 C 59.339844 121.964844 60.035156 120.089844 59.871094 118.011719 L 58.1875 96.613281 L 87.828125 72.375 L 110.523438 120.257812 C 111.296875 121.890625 112.757812 123.003906 114.527344 123.308594 C 114.84375 123.363281 115.164062 123.390625 115.476562 123.390625 C 116.910156 123.390625 118.273438 122.828125 119.320312 121.78125 L 121.25 119.851562 C 122.996094 118.101562 123.660156 115.726562 123.074219 113.324219 L 117.460938 90.445312 L 124.625 83.28125 C 125.945312 81.964844 125.945312 79.816406 124.625 78.496094 Z M 62.761719 21.417969 C 63.203125 20.980469 63.917969 20.980469 64.359375 21.417969 L 67.867188 24.929688 C 68.308594 25.367188 68.308594 26.085938 67.867188 26.523438 L 64.765625 29.628906 L 56.566406 27.617188 Z M 25.15625 31.886719 C 24.195312 31.433594 23.542969 30.578125 23.363281 29.539062 C 23.183594 28.503906 23.511719 27.476562 24.261719 26.726562 L 26.195312 24.796875 C 27.386719 23.601562 28.949219 23.164062 30.589844 23.566406 L 88.035156 37.660156 C 86.1875 39.558594 84.429688 41.515625 82.832031 43.46875 L 73.546875 54.824219 Z M 21.101562 89.902344 C 21.082031 89.824219 21.078125 89.707031 21.1875 89.597656 L 22.609375 88.175781 C 23.613281 87.171875 24.84375 86.714844 26.261719 86.828125 L 46.097656 88.386719 L 40.375 95.382812 L 21.328125 90.125 C 21.179688 90.085938 21.125 89.980469 21.101562 89.902344 Z M 41.320312 103.128906 C 39.949219 101.761719 40.066406 99.324219 41.589844 97.464844 L 84.578125 44.898438 C 93.089844 34.492188 106.453125 23.34375 117.125 21.898438 C 117.40625 21.859375 117.683594 21.839844 117.953125 21.839844 C 119.273438 21.839844 120.441406 22.292969 121.300781 23.148438 C 122.332031 24.183594 122.777344 25.664062 122.554688 27.324219 C 121.105469 37.996094 109.960938 51.359375 99.554688 59.871094 L 46.984375 102.863281 C 45.125 104.382812 42.6875 104.5 41.320312 103.128906 Z M 57.621094 118.191406 C 57.734375 119.605469 57.28125 120.835938 56.273438 121.839844 L 54.851562 123.261719 C 54.746094 123.371094 54.625 123.367188 54.546875 123.347656 C 54.46875 123.328125 54.363281 123.269531 54.324219 123.125 L 49.066406 104.074219 L 56.0625 98.355469 Z M 119.65625 118.253906 L 117.722656 120.1875 C 116.972656 120.9375 115.949219 121.265625 114.910156 121.085938 C 113.875 120.90625 113.019531 120.253906 112.5625 119.292969 L 89.625 70.902344 L 100.980469 61.617188 C 102.933594 60.019531 104.890625 58.261719 106.789062 56.414062 L 120.882812 113.863281 C 121.285156 115.5 120.847656 117.0625 119.65625 118.253906 Z M 123.03125 81.6875 L 116.832031 87.886719 L 114.820312 79.6875 L 117.925781 76.582031 C 118.136719 76.371094 118.421875 76.253906 118.722656 76.253906 C 119.027344 76.253906 119.308594 76.371094 119.519531 76.582031 L 123.03125 80.089844 C 123.46875 80.53125 123.46875 81.246094 123.03125 81.6875 Z M 103.46875 33.519531 C 103.171875 32.972656 103.378906 32.289062 103.925781 31.992188 C 106.109375 30.820312 107.964844 29.992188 109.910156 29.785156 C 111.296875 29.636719 112.628906 30.085938 113.5625 31.019531 C 114.496094 31.953125 114.945312 33.285156 114.796875 34.671875 C 114.632812 36.195312 114.164062 38.515625 112.863281 40.933594 C 112.660156 41.3125 112.273438 41.527344 111.871094 41.527344 C 111.691406 41.527344 111.507812 41.484375 111.335938 41.390625 C 110.789062 41.097656 110.582031 40.414062 110.878906 39.863281 C 111.757812 38.226562 112.351562 36.300781 112.554688 34.429688 C 112.628906 33.714844 112.421875 33.070312 111.96875 32.613281 C 111.511719 32.160156 110.867188 31.949219 110.152344 32.027344 C 108.566406 32.199219 106.945312 32.929688 104.996094 33.980469 C 104.445312 34.273438 103.761719 34.070312 103.46875 33.519531 Z M 103.46875 33.519531 " fill-opacity="1" fill-rule="nonzero"/></g></svg>