<svg xmlns="http://www.w3.org/2000/svg" xmlns:xlink="http://www.w3.org/1999/xlink" width="200" zoomAndPan="magnify" viewBox="0 0 150 149.999998" height="200" preserveAspectRatio="xMidYMid meet" version="1.0"><defs><clipPath id="8625cb47d2"><path d="M 65 32.128906 L 71 32.128906 L 71 59 L 65 59 Z M 65 32.128906 " clip-rule="nonzero"/></clipPath><clipPath id="f1f1fd8420"><path d="M 32 107 L 89 107 L 89 117.628906 L 32 117.628906 Z M 32 107 " clip-rule="nonzero"/></clipPath></defs><path fill="#c4a0cc" d="M 69.871094 64.855469 C 66.734375 65.359375 64.023438 65.941406 61.507812 67.222656 C 60.480469 67.746094 59.738281 68.554688 58.972656 69.359375 C 55.683594 72.816406 52.394531 76.261719 51.101562 81.078125 C 50.347656 83.898438 49.769531 86.707031 50.40625 89.628906 C 50.574219 90.394531 50.671875 91.070312 49.5 91.109375 C 48.335938 91.144531 48.300781 90.417969 48.195312 89.589844 C 47.625 85.117188 48.746094 80.902344 50.679688 77.007812 C 53.921875 70.484375 58.527344 65.503906 66.105469 63.683594 C 70.390625 62.65625 74.65625 62.21875 78.925781 62.609375 C 81.71875 62.863281 84.457031 64.078125 87.070312 65.335938 C 90.25 66.867188 92.890625 69.128906 95.378906 71.519531 C 97.546875 73.59375 98.878906 76.320312 99.691406 79.238281 C 100.5625 82.375 101.328125 85.53125 100.898438 88.851562 C 100.8125 89.496094 101.003906 90.09375 100.0625 90.148438 C 99.015625 90.203125 99.144531 89.269531 99.183594 88.851562 C 99.40625 86.632812 98.835938 84.523438 98.472656 82.382812 C 97.835938 78.625 96.164062 75.441406 93.511719 72.65625 C 90.03125 69.007812 85.832031 66.617188 81.074219 65.261719 C 77.285156 64.183594 73.375 64.054688 69.871094 64.855469 Z M 69.871094 64.855469 " fill-opacity="1" fill-rule="nonzero"/><path fill="#c4a0cc" d="M 132.339844 89.613281 C 128.960938 90.019531 125.582031 89.492188 122.203125 89.570312 C 119.457031 89.628906 116.710938 89.617188 113.96875 89.617188 C 111.007812 89.621094 108.046875 89.605469 105.085938 89.578125 C 104.152344 89.570312 104.289062 88.722656 104.246094 88.214844 C 104.175781 87.390625 105 87.648438 105.386719 87.640625 C 107.828125 87.578125 110.273438 87.59375 112.714844 87.601562 C 116.769531 87.617188 120.820312 87.648438 124.875 87.667969 C 127.757812 87.679688 130.640625 87.710938 133.527344 87.679688 C 134.242188 87.675781 134.792969 87.777344 134.871094 88.578125 C 134.953125 89.484375 134.167969 89.269531 133.679688 89.394531 C 133.246094 89.507812 132.789062 89.542969 132.34375 89.613281 Z M 132.339844 89.613281 " fill-opacity="1" fill-rule="nonzero"/><path fill="#c4a0cc" d="M 40.960938 91.109375 C 36.554688 91.679688 32.128906 91.6875 27.703125 91.796875 C 24.117188 91.886719 20.53125 92.136719 16.957031 92.460938 C 15.953125 92.550781 15.488281 91.96875 15.316406 91.402344 C 15.058594 90.574219 15.921875 90.480469 16.523438 90.4375 C 19.492188 90.234375 22.460938 90.023438 25.433594 89.890625 C 28.726562 89.742188 32.027344 89.558594 35.320312 89.601562 C 38.207031 89.640625 40.988281 88.734375 43.875 88.898438 C 44.425781 88.929688 44.855469 88.777344 44.898438 89.554688 C 44.933594 90.164062 44.820312 90.53125 44.148438 90.617188 C 43.082031 90.757812 42.023438 90.941406 40.960938 91.109375 Z M 40.960938 91.109375 " fill-opacity="1" fill-rule="nonzero"/><path fill="#c4a0cc" d="M 47.226562 77.21875 C 47.402344 78.175781 46.507812 78.734375 45.394531 78.367188 C 41.878906 77.203125 38.367188 76.023438 34.871094 74.796875 C 31.363281 73.570312 27.761719 72.664062 24.191406 71.648438 C 23.25 71.382812 22.316406 71.0625 21.4375 70.648438 C 20.925781 70.40625 20.167969 70.097656 20.554688 69.28125 C 20.867188 68.621094 21.464844 68.613281 22.136719 68.8125 C 25.261719 69.738281 28.421875 70.542969 31.519531 71.546875 C 36.230469 73.070312 40.90625 74.710938 45.582031 76.34375 C 46.171875 76.550781 46.890625 76.636719 47.226562 77.21875 Z M 47.226562 77.21875 " fill-opacity="1" fill-rule="nonzero"/><path fill="#c4a0cc" d="M 56.832031 63.476562 C 54.074219 59.476562 51.675781 55.25 49.144531 51.101562 C 47.171875 47.875 44.996094 44.769531 42.917969 41.605469 C 42.539062 41.023438 41.800781 40.339844 42.644531 39.734375 C 43.472656 39.132812 44.03125 39.824219 44.542969 40.511719 C 48.371094 45.644531 51.480469 51.238281 54.867188 56.648438 C 55.71875 58.007812 56.441406 59.472656 57.449219 60.703125 C 58.511719 62 58.203125 62.757812 56.832031 63.476562 Z M 56.832031 63.476562 " fill-opacity="1" fill-rule="nonzero"/><path fill="#c4a0cc" d="M 119.328125 52.082031 C 119.867188 51.890625 120.359375 51.972656 120.566406 52.414062 C 120.859375 53.035156 120.417969 53.414062 119.9375 53.792969 C 116.363281 56.617188 112.769531 59.417969 109.257812 62.320312 C 106.261719 64.792969 102.953125 66.820312 99.863281 69.15625 C 99.34375 69.550781 98.835938 70.046875 98.183594 69.175781 C 97.5625 68.347656 97.894531 67.933594 98.578125 67.492188 C 105.414062 63.09375 111.601562 57.839844 117.960938 52.8125 C 118.375 52.488281 118.742188 51.992188 119.328125 52.082031 Z M 119.328125 52.082031 " fill-opacity="1" fill-rule="nonzero"/><path fill="#c4a0cc" d="M 103.460938 39.351562 C 103.253906 40.367188 102.535156 41.390625 101.921875 42.417969 C 98.113281 48.789062 94.503906 55.285156 90.109375 61.296875 C 89.660156 61.910156 89.199219 61.964844 88.707031 61.878906 C 88.0625 61.765625 87.457031 61.554688 88.109375 60.597656 C 90.71875 56.765625 93.328125 52.933594 95.773438 48.996094 C 97.601562 46.058594 99.175781 42.960938 100.875 39.941406 C 101.28125 39.226562 101.640625 38.460938 102.683594 38.464844 C 103.199219 38.46875 103.410156 38.652344 103.457031 39.351562 Z M 103.460938 39.351562 " fill-opacity="1" fill-rule="nonzero"/><path fill="#c4a0cc" d="M 46.117188 81.25 C 45.929688 82.238281 45.917969 83.105469 44.601562 82.757812 C 41.367188 81.90625 38.109375 81.15625 34.867188 80.332031 C 29.890625 79.074219 24.925781 77.777344 19.949219 76.535156 C 19.105469 76.324219 18.414062 76.066406 18.757812 75.054688 C 19.082031 74.105469 19.855469 74.535156 20.46875 74.6875 C 28.726562 76.730469 36.984375 78.785156 45.238281 80.847656 C 45.566406 80.929688 45.867188 81.132812 46.117188 81.25 Z M 46.117188 81.25 " fill-opacity="1" fill-rule="nonzero"/><g clip-path="url(#8625cb47d2)"><path fill="#c4a0cc" d="M 67.636719 34.890625 C 68.378906 42.519531 69.25 49.6875 70.367188 56.828125 C 70.515625 57.785156 70.332031 58.25 69.242188 58.421875 C 67.9375 58.628906 68.117188 57.550781 68.09375 57.078125 C 67.925781 53.667969 67.285156 50.328125 66.871094 46.953125 C 66.3125 42.382812 66.246094 37.753906 65.355469 33.214844 C 65.277344 32.796875 65.214844 32.304688 65.886719 32.199219 C 66.402344 32.117188 66.796875 32.246094 66.988281 32.730469 C 67.316406 33.566406 67.632812 34.410156 67.636719 34.890625 Z M 67.636719 34.890625 " fill-opacity="1" fill-rule="nonzero"/></g><path fill="#c4a0cc" d="M 50.648438 70.125 C 50.371094 70.574219 50.1875 71.003906 49.890625 71.332031 C 49.558594 71.691406 49.316406 71.246094 49.050781 71.105469 C 46.746094 69.882812 45.078125 67.882812 43.152344 66.203125 C 40.125 63.566406 37.234375 60.773438 34.28125 58.054688 C 33.625 57.453125 32.972656 56.847656 32.269531 56.308594 C 31.550781 55.753906 30.828125 54.960938 31.417969 54.230469 C 32.035156 53.464844 32.949219 54.050781 33.613281 54.660156 C 36.292969 57.117188 38.964844 59.589844 41.664062 62.027344 C 44.207031 64.320312 46.78125 66.574219 49.332031 68.855469 C 49.785156 69.257812 50.207031 69.699219 50.648438 70.125 Z M 50.648438 70.125 " fill-opacity="1" fill-rule="nonzero"/><path fill="#c4a0cc" d="M 102.929688 78.8125 C 102.539062 78.015625 102.761719 77.792969 103.382812 77.550781 C 107.511719 75.933594 111.601562 74.21875 115.84375 72.890625 C 118.851562 71.949219 121.832031 70.933594 124.804688 69.882812 C 125.613281 69.597656 126.386719 69.640625 126.714844 70.332031 C 127.046875 71.035156 126.429688 71.507812 125.714844 71.738281 C 123.878906 72.328125 122.078125 73.042969 120.21875 73.527344 C 116.304688 74.539062 112.59375 76.097656 108.839844 77.546875 C 107.148438 78.199219 105.429688 78.789062 103.753906 79.484375 C 102.667969 79.9375 103.097656 78.941406 102.929688 78.8125 Z M 102.929688 78.8125 " fill-opacity="1" fill-rule="nonzero"/><path fill="#c4a0cc" d="M 106.859375 48.070312 C 106.863281 48.582031 106.539062 48.929688 106.25 49.257812 C 102.777344 53.179688 99.464844 57.226562 96.320312 61.417969 C 95.578125 62.40625 94.769531 63.347656 94.050781 64.351562 C 93.601562 64.976562 93.28125 65.097656 92.582031 64.589844 C 91.796875 64.019531 92.214844 63.683594 92.550781 63.175781 C 94.847656 59.707031 97.492188 56.5 100.085938 53.261719 C 101.625 51.335938 103.421875 49.617188 105.023438 47.734375 C 105.355469 47.34375 105.660156 47.339844 106.019531 47.34375 C 106.472656 47.347656 106.578125 47.832031 106.859375 48.070312 Z M 106.859375 48.070312 " fill-opacity="1" fill-rule="nonzero"/><path fill="#c4a0cc" d="M 103.453125 82.5 C 108.617188 81.34375 113.921875 81.046875 119.1875 80.4375 C 120.871094 80.242188 122.554688 80.085938 124.214844 79.714844 C 124.914062 79.558594 125.738281 79.253906 125.996094 80.253906 C 126.269531 81.3125 125.394531 81.417969 124.660156 81.535156 C 120.554688 82.171875 116.457031 82.84375 112.300781 83.121094 C 110.222656 83.257812 108.148438 83.648438 106.101562 84.070312 C 104.730469 84.351562 103.671875 84.390625 103.453125 82.5 Z M 103.453125 82.5 " fill-opacity="1" fill-rule="nonzero"/><path fill="#c4a0cc" d="M 84.238281 59.195312 C 84.273438 59.101562 84.371094 58.847656 84.457031 58.589844 C 86.394531 52.726562 88.1875 46.808594 90.683594 41.144531 C 90.953125 40.535156 91.054688 39.589844 92.097656 39.988281 C 93.097656 40.367188 92.746094 41.1875 92.484375 41.828125 C 90.105469 47.625 88.214844 53.589844 86.1875 59.507812 C 86.097656 59.773438 86.238281 60.625 85.453125 60.265625 C 85.003906 60.058594 84.277344 60.164062 84.238281 59.195312 Z M 84.238281 59.195312 " fill-opacity="1" fill-rule="nonzero"/><path fill="#c4a0cc" d="M 74.375 40.21875 C 74.5625 44.25 75.152344 48.699219 75.078125 53.1875 C 75.054688 54.476562 75.460938 55.714844 75.34375 57.046875 C 75.246094 58.128906 74.589844 57.832031 74.078125 57.902344 C 73.261719 58.015625 73.179688 57.394531 73.179688 56.808594 C 73.179688 53.519531 72.957031 50.242188 72.703125 46.960938 C 72.496094 44.214844 72.472656 41.453125 72.070312 38.714844 C 71.960938 37.96875 72.390625 37.484375 73.058594 37.429688 C 73.636719 37.382812 74.105469 37.710938 74.109375 38.445312 C 74.113281 38.890625 74.238281 39.335938 74.375 40.21875 Z M 74.375 40.21875 " fill-opacity="1" fill-rule="nonzero"/><path fill="#c4a0cc" d="M 54.976562 65.359375 C 53.363281 66.699219 53.4375 66.640625 52.09375 64.898438 C 48.617188 60.390625 45.054688 55.945312 41.570312 51.441406 C 41.171875 50.929688 40.15625 50.285156 41.160156 49.542969 C 42.066406 48.871094 42.675781 49.632812 43.214844 50.328125 C 47.128906 55.339844 51.054688 60.347656 54.976562 65.359375 Z M 54.976562 65.359375 " fill-opacity="1" fill-rule="nonzero"/><path fill="#c4a0cc" d="M 31.125 65.144531 C 31.386719 65.242188 31.914062 65.390625 32.402344 65.625 C 37.484375 68.046875 42.414062 70.78125 47.625 72.941406 C 48.367188 73.246094 48.796875 73.632812 48.394531 74.589844 C 47.960938 75.625 47.261719 75.113281 46.804688 74.894531 C 41.53125 72.390625 36.273438 69.84375 31.035156 67.261719 C 30.53125 67.011719 29.828125 66.71875 29.890625 65.941406 C 29.933594 65.421875 30.339844 65.199219 31.125 65.144531 Z M 31.125 65.144531 " fill-opacity="1" fill-rule="nonzero"/><path fill="#c4a0cc" d="M 83.542969 44.105469 C 83.402344 45.117188 83.261719 46.386719 83.054688 47.644531 C 82.503906 50.980469 81.863281 54.300781 81.394531 57.648438 C 81.253906 58.667969 80.734375 58.5625 80.089844 58.515625 C 79.253906 58.457031 79.277344 58.113281 79.386719 57.304688 C 79.964844 52.890625 80.769531 48.519531 81.496094 44.132812 C 81.621094 43.382812 81.765625 42.796875 82.585938 42.734375 C 83.332031 42.675781 83.507812 43.226562 83.539062 44.105469 Z M 83.542969 44.105469 " fill-opacity="1" fill-rule="nonzero"/><path fill="#c4a0cc" d="M 55.984375 46.460938 C 57.070312 46.277344 57.339844 47.019531 57.527344 47.496094 C 59.046875 51.347656 60.734375 55.125 62.5 58.867188 C 62.96875 59.859375 62.5 60.285156 61.761719 60.59375 C 60.890625 60.957031 60.824219 60.148438 60.597656 59.644531 C 59.011719 56.117188 57.382812 52.605469 55.890625 49.035156 C 55.554688 48.238281 55.058594 47.148438 55.984375 46.460938 Z M 55.984375 46.460938 " fill-opacity="1" fill-rule="nonzero"/><path fill="#c4a0cc" d="M 110.605469 67.507812 C 110.4375 68.058594 110.144531 68.441406 109.613281 68.757812 C 107 70.3125 104.398438 71.890625 101.851562 73.550781 C 101.132812 74.015625 100.890625 73.507812 100.691406 73.164062 C 100.265625 72.441406 100.492188 71.871094 101.269531 71.429688 C 103.742188 70.019531 106.1875 68.554688 108.640625 67.105469 C 108.824219 67 108.984375 66.804688 109.175781 66.769531 C 109.804688 66.664062 110.230469 67.011719 110.605469 67.507812 Z M 110.605469 67.507812 " fill-opacity="1" fill-rule="nonzero"/><path fill="#c4a0cc" d="M 43.800781 86.53125 C 41.355469 86.445312 38.90625 86.378906 36.460938 86.253906 C 35.851562 86.226562 35.234375 86.03125 35.265625 85.199219 C 35.308594 84.195312 36.113281 84.234375 36.746094 84.246094 C 39.128906 84.289062 41.515625 84.347656 43.886719 84.539062 C 44.289062 84.570312 45.195312 84.101562 45.253906 85.152344 C 45.3125 86.199219 44.777344 86.570312 43.800781 86.53125 Z M 43.800781 86.53125 " fill-opacity="1" fill-rule="nonzero"/><path fill="#c4a0cc" d="M 57.019531 101.609375 C 66.539062 102.710938 75.144531 106.917969 84.191406 109.628906 C 90.171875 111.421875 96.25 112.546875 102.523438 111.515625 C 106.9375 110.789062 111.121094 109.347656 114.992188 107.078125 C 115.546875 106.753906 116.03125 106.652344 116.519531 106.992188 C 117.164062 107.4375 116.828125 107.957031 116.503906 108.433594 C 116.261719 108.515625 115.921875 108.386719 115.816406 108.753906 C 113.351562 109.75 111.03125 111.066406 108.480469 111.871094 C 102.582031 113.734375 96.617188 114.109375 90.527344 112.988281 C 84.679688 111.910156 79.113281 109.976562 73.542969 107.933594 C 68.347656 106.03125 63.085938 104.289062 57.5 103.632812 C 53.0625 103.113281 48.625 102.542969 44.1875 102.769531 C 40.160156 102.976562 36.121094 103.429688 32.183594 104.550781 C 27.519531 105.878906 22.78125 106.925781 18.152344 108.386719 C 17.621094 108.554688 17.230469 108.382812 16.984375 107.996094 C 16.648438 107.472656 17.273438 107.328125 17.515625 107.125 C 18.964844 105.910156 20.820312 105.757812 22.558594 105.320312 C 27.203125 104.15625 31.714844 102.429688 36.503906 101.855469 C 41.757812 101.222656 47.011719 100.511719 52.328125 101.289062 C 53.644531 101.480469 55.015625 101.277344 56.335938 101.609375 C 56.566406 101.609375 56.792969 101.609375 57.019531 101.613281 Z M 57.019531 101.609375 " fill-opacity="1" fill-rule="nonzero"/><path fill="#c4a0cc" d="M 103.496094 106.851562 C 94.871094 106.933594 87.363281 105.226562 80.085938 102.542969 C 73.9375 100.277344 67.699219 98.839844 61.105469 99.292969 C 60.710938 99.320312 60.3125 99.308594 59.917969 99.289062 C 59.394531 99.269531 59.03125 98.988281 59.078125 98.460938 C 59.121094 98.011719 59.339844 97.628906 59.925781 97.605469 C 62.636719 97.488281 65.34375 97.460938 68.054688 97.707031 C 75.417969 98.378906 81.992188 101.898438 89.101562 103.496094 C 96.328125 105.121094 103.601562 106 110.886719 104.308594 C 113.964844 103.59375 116.863281 102.078125 119.820312 100.867188 C 120.746094 100.492188 122.039062 99.734375 122.5 100.601562 C 123.222656 101.953125 121.566406 102.027344 120.753906 102.382812 C 114.992188 104.894531 109.246094 107.507812 103.496094 106.851562 Z M 103.496094 106.851562 " fill-opacity="1" fill-rule="nonzero"/><g clip-path="url(#f1f1fd8420)"><path fill="#c4a0cc" d="M 46.671875 107.402344 C 56.597656 107.046875 66.671875 109.601562 76.59375 112.996094 C 80.203125 114.230469 83.828125 115.425781 87.628906 115.929688 C 88.132812 115.996094 88.550781 116.113281 88.617188 116.632812 C 88.707031 117.367188 88.03125 117.433594 87.589844 117.507812 C 85.519531 117.847656 83.570312 117.078125 81.660156 116.527344 C 74.34375 114.425781 67.246094 111.515625 59.707031 110.234375 C 57.222656 109.816406 54.65625 109.65625 52.128906 109.410156 C 48.347656 109.046875 44.585938 109.207031 40.816406 109.15625 C 38.566406 109.125 36.386719 109.65625 34.183594 110.011719 C 33.859375 110.066406 33.535156 110.136719 33.207031 110.171875 C 32.765625 110.21875 32.359375 110 32.246094 109.628906 C 32.109375 109.1875 32.515625 108.988281 32.894531 108.796875 C 34.144531 108.179688 35.511719 108.011719 36.855469 107.8125 C 39.882812 107.363281 42.9375 107.339844 46.671875 107.402344 Z M 46.671875 107.402344 " fill-opacity="1" fill-rule="nonzero"/></g></svg>